<?xml version="1.0" standalone="no"?>
<!DOCTYPE svg PUBLIC "-//W3C//DTD SVG 20010904//EN"
 "http://www.w3.org/TR/2001/REC-SVG-20010904/DTD/svg10.dtd">
<svg version="1.0" xmlns="http://www.w3.org/2000/svg"
 width="120.000000pt" height="120.000000pt" viewBox="0 0 120.000000 120.000000"
 preserveAspectRatio="xMidYMid meet">
<metadata>
Created by potrace 1.14, written by Peter Selinger 2001-2017
</metadata>
<g transform="translate(0.000000,120.000000) scale(0.100000,-0.100000)"
fill="#000000" stroke="none">
<path d="M1015 1134 c-29 -6 -101 -29 -110 -35 -5 -3 -21 -10 -35 -14 -69 -21
-271 -135 -338 -190 -44 -36 -140 -136 -178 -184 -41 -52 -50 -58 -151 -96
-138 -52 -141 -61 -53 -150 51 -52 60 -66 52 -81 -5 -11 -7 -24 -5 -31 2 -6
-11 -16 -30 -22 -45 -15 -71 -45 -91 -104 -19 -57 -21 -140 -3 -155 11 -10 36
-4 101 23 16 7 18 5 13 -8 -5 -14 0 -17 27 -17 38 0 111 48 121 79 5 15 14 20
39 19 18 -1 39 2 45 7 9 5 32 -11 67 -46 29 -29 60 -54 68 -55 24 -3 42 25 75
121 18 50 36 100 41 112 5 12 33 38 61 57 156 105 261 251 362 506 51 129 54
141 43 187 -10 45 -76 87 -121 77z"/>
</g>
</svg>
